<svg width="623" height="169" viewBox="0 0 623 169" fill="none" xmlns="http://www.w3.org/2000/svg">
<g clip-path="url(#clip0)">
<path d="M276.014 85.2489V44.7598H260.076V85.2489C260.076 89.7691 258.859 93.0357 256.965 95.1384C255.109 97.1998 252.298 98.4848 248.355 98.4848C244.45 98.4848 241.635 97.2177 239.769 95.1626C237.869 93.0705 236.633 89.8074 236.633 85.2489V44.7598H220.695V85.2489C220.695 93.4113 223.269 100.297 228.217 105.141C233.157 109.978 240.139 112.463 248.355 112.463C256.571 112.463 263.553 109.978 268.492 105.141C273.44 100.297 276.014 93.4113 276.014 85.2489Z" fill="white"/>
<path d="M307.526 59.094V111.304H323.464V67.6065L315.478 59.094H343.6V44.7598H287.301V59.094H307.526Z" fill="white"/>
<path d="M387.542 66.216L388.067 68.5382H404.548L403.992 65.0848C402.812 57.7578 399.455 52.2842 394.548 48.6883C389.697 45.1333 383.592 43.6016 377.172 43.6016C369.71 43.6016 363.612 45.7247 359.328 49.3673C355.025 53.0256 352.721 58.0856 352.721 63.5094C352.721 70.5034 355.439 75.1828 359.688 78.2607C363.691 81.1614 368.854 82.4798 373.422 83.4719C374.303 83.6633 375.158 83.8425 375.987 84.0161C379.728 84.7995 382.923 85.4686 385.422 86.6239C386.87 87.2937 387.838 88.0288 388.448 88.8414C389.024 89.6075 389.428 90.6345 389.428 92.1984C389.428 94.0267 388.74 95.3943 387.404 96.3952C385.964 97.4727 383.511 98.3067 379.756 98.3067C376.151 98.3067 373.512 97.4764 371.65 96.1382C369.817 94.8206 368.474 92.8234 367.77 89.97L367.211 87.7042H350.828L351.53 91.2602C352.902 98.2216 356.203 103.623 361.204 107.242C366.159 110.827 372.507 112.463 379.667 112.463C386.766 112.463 393.215 110.68 397.962 107.006C402.795 103.266 405.634 97.733 405.634 90.862C405.634 83.7824 402.936 79.0128 398.694 75.8638C394.682 72.8857 389.512 71.538 384.919 70.5625C383.793 70.3233 382.708 70.1066 381.668 69.8989C378.197 69.2055 375.221 68.6111 372.84 67.6065C371.37 66.9861 370.417 66.3141 369.833 65.5976C369.299 64.943 368.926 64.0753 368.926 62.7076C368.926 61.2307 369.493 60.1451 370.589 59.3359C371.785 58.4535 373.829 57.7576 376.905 57.7576C380.019 57.7576 382.278 58.4749 383.896 59.7218C385.499 60.9573 386.808 62.9707 387.542 66.216Z" fill="white"/>
<path d="M472.93 85.2489V44.7598H456.992V85.2489C456.992 89.7691 455.775 93.0357 453.882 95.1384C452.026 97.1998 449.215 98.4848 445.271 98.4848C441.366 98.4848 438.551 97.2177 436.685 95.1626C434.786 93.0705 433.55 89.8074 433.55 85.2489V44.7598H417.612V85.2489C417.612 93.4113 420.186 100.297 425.134 105.141C430.073 109.978 437.055 112.463 445.271 112.463C453.487 112.463 460.469 109.978 465.409 105.141C470.356 100.297 472.93 93.4113 472.93 85.2489Z" fill="white"/>
<path fill-rule="evenodd" clip-rule="evenodd" d="M488.138 44.7598V111.304H516.421C523.529 111.304 529.599 109.626 533.952 106.11C538.391 102.523 540.694 97.3024 540.694 91.0402C540.694 86.8972 539.52 83.1342 537.124 80.0637C535.852 78.4338 534.28 77.0547 532.45 75.9319C535.605 72.9853 537.309 68.9284 537.309 64.2222C537.309 58.2689 534.892 53.2686 530.512 49.8285C526.21 46.4501 520.26 44.7598 513.392 44.7598H488.138ZM513.124 58.6486C516.084 58.6486 518.073 59.399 519.267 60.3959C520.397 61.338 521.103 62.7322 521.103 64.7568C521.103 66.5049 520.459 67.8138 519.31 68.747C518.095 69.7328 516.045 70.5086 512.946 70.5086H504.076V58.6486H513.124ZM515.173 84.2192C518.608 84.2192 520.958 85.0513 522.383 86.1744C523.728 87.2348 524.489 88.7334 524.489 90.7729C524.489 92.8861 523.736 94.4369 522.504 95.4999C521.227 96.602 519.152 97.4157 516.153 97.4157H504.076V84.2192H515.173Z" fill="white"/>
<path fill-rule="evenodd" clip-rule="evenodd" d="M583.578 112.463C593.221 112.463 601.325 109.229 607.001 103.113C612.653 97.0221 615.603 88.3915 615.603 78.1212C615.603 67.8516 612.653 59.182 607.009 53.0497C601.339 46.8889 593.234 43.6016 583.578 43.6016C573.841 43.6016 565.711 46.8841 560.036 53.0497C554.389 59.1856 551.464 67.8577 551.464 78.1212C551.464 88.3854 554.39 97.0185 560.045 103.113C565.725 109.234 573.855 112.463 583.578 112.463ZM583.578 98.1285C578.447 98.1285 574.585 96.2727 571.947 93.0669C569.249 89.7892 567.581 84.7875 567.581 78.1212C567.581 71.4063 569.251 66.3558 571.954 63.0435C574.597 59.8057 578.458 57.9358 583.578 57.9358C588.697 57.9358 592.532 59.8039 595.152 63.0358C597.835 66.3462 599.487 71.398 599.487 78.1212C599.487 84.7959 597.837 89.7989 595.159 93.0747C592.544 96.2744 588.708 98.1285 583.578 98.1285Z" fill="white"/>
<path d="M119.345 163.391H66.3491C83.5225 152.195 94.676 132.833 94.676 111.13V4.875H164.204V111.13C164.204 137.582 145.538 159.921 119.345 163.391Z" fill="white"/>
<path d="M26.1298 154.359C36.4106 161.617 50.4832 161.624 60.8169 154.442C67.7139 149.648 73.3812 143.263 77.3222 135.849C74.1924 128.449 72.4711 120.334 72.4711 111.858V4.875H4.09766V111.858C4.09766 129.275 12.7127 144.887 26.1298 154.359Z" fill="url(#paint0_linear)"/>
</g>
<defs>
<linearGradient id="paint0_linear" x1="105.445" y1="22.6145" x2="-126.137" y2="202.503" gradientUnits="userSpaceOnUse">
<stop stop-color="white"/>
<stop offset="1" stop-color="white" stop-opacity="0"/>
</linearGradient>
<clipPath id="clip0">
<rect width="622" height="168" fill="white" transform="translate(0.714844 0.0556641)"/>
</clipPath>
</defs>
</svg>
