<svg width="622" height="169" viewBox="0 0 622 169" fill="none" xmlns="http://www.w3.org/2000/svg">
<g clip-path="url(#clip0)">
<path d="M275.299 85.2489V44.7598H259.361V85.2489C259.361 89.7691 258.144 93.0357 256.251 95.1384C254.395 97.1998 251.583 98.4848 247.64 98.4848C243.735 98.4848 240.92 97.2177 239.054 95.1626C237.154 93.0705 235.918 89.8074 235.918 85.2489V44.7598H219.98V85.2489C219.98 93.4113 222.555 100.297 227.502 105.141C232.442 109.978 239.424 112.463 247.64 112.463C255.856 112.463 262.838 109.978 267.777 105.141C272.725 100.297 275.299 93.4113 275.299 85.2489Z" fill="#2D2D2D"/>
<path d="M306.811 59.094V111.304H322.749V67.6065L314.764 59.094H342.885V44.7598H286.586V59.094H306.811Z" fill="#2D2D2D"/>
<path d="M386.827 66.216L387.352 68.5382H403.833L403.277 65.0848C402.097 57.7578 398.74 52.2842 393.833 48.6883C388.982 45.1333 382.877 43.6016 376.458 43.6016C368.995 43.6016 362.897 45.7247 358.613 49.3673C354.31 53.0256 352.006 58.0856 352.006 63.5094C352.006 70.5034 354.725 75.1828 358.973 78.2607C362.976 81.1614 368.14 82.4798 372.707 83.4719C373.588 83.6633 374.444 83.8425 375.273 84.0161C379.013 84.7995 382.208 85.4686 384.707 86.6239C386.156 87.2937 387.123 88.0288 387.733 88.8414C388.309 89.6075 388.713 90.6345 388.713 92.1984C388.713 94.0267 388.026 95.3943 386.689 96.3952C385.249 97.4727 382.796 98.3067 379.041 98.3067C375.436 98.3067 372.797 97.4764 370.935 96.1382C369.102 94.8206 367.759 92.8234 367.055 89.97L366.496 87.7042H350.114L350.815 91.2602C352.187 98.2216 355.488 103.623 360.489 107.242C365.444 110.827 371.792 112.463 378.952 112.463C386.051 112.463 392.5 110.68 397.247 107.006C402.08 103.266 404.919 97.733 404.919 90.862C404.919 83.7824 402.222 79.0128 397.979 75.8638C393.968 72.8857 388.797 71.538 384.204 70.5625C383.078 70.3233 381.993 70.1066 380.953 69.8989C377.482 69.2055 374.506 68.6111 372.125 67.6065C370.655 66.9861 369.702 66.3141 369.118 65.5976C368.584 64.943 368.211 64.0753 368.211 62.7076C368.211 61.2307 368.778 60.1451 369.874 59.3359C371.07 58.4535 373.114 57.7576 376.19 57.7576C379.305 57.7576 381.563 58.4749 383.181 59.7218C384.784 60.9573 386.093 62.9707 386.827 66.216Z" fill="#2D2D2D"/>
<path d="M472.216 85.2489V44.7598H456.278V85.2489C456.278 89.7691 455.061 93.0357 453.167 95.1384C451.311 97.1998 448.5 98.4848 444.556 98.4848C440.651 98.4848 437.836 97.2177 435.97 95.1626C434.071 93.0705 432.835 89.8074 432.835 85.2489V44.7598H416.897V85.2489C416.897 93.4113 419.471 100.297 424.419 105.141C429.358 109.978 436.34 112.463 444.556 112.463C452.772 112.463 459.754 109.978 464.694 105.141C469.641 100.297 472.216 93.4113 472.216 85.2489Z" fill="#2D2D2D"/>
<path fill-rule="evenodd" clip-rule="evenodd" d="M487.423 44.7598V111.304H515.706C522.814 111.304 528.885 109.626 533.237 106.11C537.677 102.523 539.98 97.3024 539.98 91.0402C539.98 86.8972 538.805 83.1342 536.409 80.0637C535.137 78.4338 533.565 77.0547 531.736 75.9319C534.89 72.9853 536.594 68.9284 536.594 64.2222C536.594 58.2689 534.178 53.2686 529.797 49.8285C525.495 46.4501 519.545 44.7598 512.677 44.7598H487.423ZM512.409 58.6486C515.369 58.6486 517.358 59.399 518.553 60.3959C519.682 61.338 520.389 62.7322 520.389 64.7568C520.389 66.5049 519.744 67.8138 518.595 68.747C517.38 69.7328 515.33 70.5086 512.231 70.5086H503.361V58.6486H512.409ZM514.459 84.2192C517.893 84.2192 520.244 85.0513 521.668 86.1744C523.013 87.2348 523.774 88.7334 523.774 90.7729C523.774 92.8861 523.021 94.4369 521.789 95.4999C520.512 96.602 518.437 97.4157 515.439 97.4157H503.361V84.2192H514.459Z" fill="#2D2D2D"/>
<path fill-rule="evenodd" clip-rule="evenodd" d="M582.864 112.463C592.506 112.463 600.61 109.229 606.286 103.113C611.938 97.0221 614.889 88.3915 614.889 78.1212C614.889 67.8516 611.938 59.182 606.294 53.0497C600.624 46.8889 592.519 43.6016 582.864 43.6016C573.127 43.6016 564.997 46.8841 559.322 53.0497C553.674 59.1856 550.75 67.8577 550.75 78.1212C550.75 88.3854 553.675 97.0185 559.33 103.113C565.01 109.234 573.14 112.463 582.864 112.463ZM582.864 98.1285C577.733 98.1285 573.87 96.2727 571.232 93.0669C568.534 89.7892 566.866 84.7875 566.866 78.1212C566.866 71.4063 568.536 66.3558 571.24 63.0435C573.882 59.8057 577.743 57.9358 582.864 57.9358C587.982 57.9358 591.817 59.8039 594.437 63.0358C597.12 66.3462 598.772 71.398 598.772 78.1212C598.772 84.7959 597.122 89.7989 594.445 93.0747C591.829 96.2744 587.993 98.1285 582.864 98.1285Z" fill="#2D2D2D"/>
<path d="M118.631 163.391H65.6342C82.8077 152.195 93.9611 132.833 93.9611 111.13V4.875H163.489V111.13C163.489 137.582 144.823 159.921 118.631 163.391Z" fill="#2D2D2D"/>
<path d="M25.415 154.359C35.6957 161.617 49.7683 161.624 60.1021 154.442C66.9991 149.648 72.6663 143.263 76.6074 135.849C73.4775 128.449 71.7562 120.334 71.7562 111.858V4.875H3.38281V111.858C3.38281 129.275 11.9979 144.887 25.415 154.359Z" fill="url(#paint0_linear)"/>
</g>
<defs>
<linearGradient id="paint0_linear" x1="104.73" y1="22.6145" x2="-126.852" y2="202.503" gradientUnits="userSpaceOnUse">
<stop stop-color="#2D2D2D"/>
<stop offset="1" stop-color="#2D2D2D" stop-opacity="0"/>
</linearGradient>
<clipPath id="clip0">
<rect width="622" height="168" fill="white" transform="translate(0 0.0556641)"/>
</clipPath>
</defs>
</svg>
